PathFileType	4	(X/Y/Z)	/Users/visionmauri/Downloads/Videos/OAW06-top_Sports2D/OAW06-top_Sports2D_m_person00.trc
DataRate	CameraRate	NumFrames	NumMarkers	Units	OrigDataRate	OrigDataStartFrame	OrigNumFrames
30.0	30.0	7	22	m	30.0	1333	1524
Frame#	Time	Hip			RHip			RKnee			RAnkle			RBigToe			RSmallToe			RHeel			LHip			LKnee			LAnkle			LBigToe			LSmallToe			LHeel			Neck			Head			Nose			RShoulder			RElbow			RWrist			LShoulder			LElbow			LWrist			
		X1	Y1	Z1	X2	Y2	Z2	X3	Y3	Z3	X4	Y4	Z4	X5	Y5	Z5	X6	Y6	Z6	X7	Y7	Z7	X8	Y8	Z8	X9	Y9	Z9	X10	Y10	Z10	X11	Y11	Z11	X12	Y12	Z12	X13	Y13	Z13	X14	Y14	Z14	X15	Y15	Z15	X16	Y16	Z16	X17	Y17	Z17	X18	Y18	Z18	X19	Y19	Z19	X20	Y20	Z20	X21	Y21	Z21	X22	Y22	Z22
1465	48.8563029162747	4.581811557665964	0.25188962050007846	0.0301	4.593159140620106	0.20030843700044693	0.0301	4.3885600584115645	0.13281150682919182	0.129	4.195943918936026	0.053437017514228996	0.023	4.161962386558515	0.05637501301670976	0.2179	4.17023678986374	0.01325570039393795	0.1804	4.148141113814568	0.04175534933882111	-0.0119	4.551274820197837	0.3015977820891273	0.0301	4.337234560278588	0.19889541093192628	0.129	4.132442638306849	0.09993497639467427	0.023	4.126235400128913	0.08813430386631084	0.2179	4.095203391939455	0.11630946322202258	0.1804	4.092604248810018	0.07621864902703622	-0.0119	4.852145193630803	0.3556487482944107	0.0008	4.939521723394952	0.43319218775569607	0.0655	4.862507030063715	0.3845000210884295	0.1076	4.880996966774577	0.25611479817829724	-0.01275	4.732542814539015	0.18418877009710136	0.0702	4.594160366863935	0.11532370866889902	0.1076	4.804519146327184	0.4327719095240284	-0.01275	4.640323132562829	0.4100976361293126	0.0702	4.516979510462463	0.37429999371570355	0.1076
1466	48.88965192850424	4.5810980245277495	0.2506134919987006	0.0301	4.593099717103092	0.1987990350767573	0.0301	4.388696086241844	0.13390238935957552	0.129	4.203608987870629	0.05910110824290669	0.023	4.175286745554579	0.06629018462296893	0.2179	4.182965026750726	0.02247265123771498	0.1804	4.1589236536586025	0.04762420491308245	-0.0119	4.550350199482512	0.3006803021612942	0.0301	4.336816040485558	0.19837062911237452	0.129	4.132872814738566	0.09978949065874515	0.023	4.127983394960352	0.08873357077900829	0.2179	4.0964428895827725	0.11501439756943363	0.1804	4.0929797634119005	0.07536036893551464	-0.0119	4.853808395235828	0.3558195279851998	0.0008	4.941636462729131	0.4284467243647069	0.0655	4.8629948617845615	0.382880066428513	0.1076	4.880306306430803	0.2563079382657543	-0.01275	4.732876690737249	0.18506524630452548	0.0702	4.594897295393682	0.11634412651808557	0.1076	4.804924550785829	0.43231091932345045	-0.01275	4.6426070264803165	0.4091367232846835	0.0702	4.51909805255405	0.3735331289030859	0.1076
1467	48.92300094073378	4.580811505474292	0.2500548912114988	0.0301	4.59395536315137	0.19820404058149446	0.0301	4.390349356823554	0.1358932482386164	0.129	4.213679821544754	0.06565819421888427	0.023	4.1893557026314365	0.07626516214613249	0.2179	4.197240976293767	0.03295483007796967	0.1804	4.172040211696014	0.05497131405080584	-0.0119	4.551435430547004	0.3009932800258881	0.0301	4.337567368889147	0.197916812251739	0.129	4.1323466345355175	0.10010607289754855	0.023	4.12825361295266	0.08848314390256201	0.2179	4.097192024316675	0.1141971842560468	0.1804	4.093575045194561	0.07565059012392847	-0.0119	4.85490549471955	0.3538960533845154	0.0008	4.945535487453953	0.42394301821314884	0.0655	4.8654091486982995	0.38071707616907174	0.1076	4.879657818379147	0.2557586148939807	-0.01275	4.73275463913754	0.1854645735215054	0.0702	4.596819415074917	0.11765624056007798	0.1076	4.8056585736163475	0.4311179486648889	-0.01275	4.645028451474209	0.40855230351644606	0.0702	4.521098984157288	0.3726363702862225	0.1076
1468	48.956349952963315	4.581589953281554	0.24995112380451012	0.0301	4.595637355937518	0.19819938878480214	0.0301	4.392788209383083	0.138420802058569	0.129	4.222591134103397	0.07145984440078071	0.023	4.199996385104873	0.08394823677956229	0.2179	4.208258157822788	0.04196516994657375	0.1804	4.182826818553527	0.06152509431467427	-0.0119	4.554134432141427	0.3015374971608725	0.0301	4.338862190642156	0.19754902414085151	0.129	4.13212132976151	0.10025529880268869	0.023	4.126707543984409	0.08708446112271258	0.2179	4.096654602884384	0.11244107412105175	0.1804	4.09449209318396	0.07663033475349668	-0.0119	4.856366731623591	0.3503301587222536	0.0008	4.950640240552655	0.4188087077234383	0.0655	4.869946848361204	0.37623535518949786	0.1076	4.8792656945213775	0.25408647255125294	-0.01275	4.732409067290324	0.1849290986796017	0.0702	4.598386174013077	0.11867579271645666	0.1076	4.807269629921515	0.42904068412250984	-0.01275	4.647590805651277	0.40772802316009044	0.0702	4.522742483989835	0.37190940453315263	0.1076
1469	48.98969896519286	4.583716343346234	0.25028710533559356	0.0301	4.597659366881689	0.19826718051526582	0.0301	4.395565870186878	0.14106120609883593	0.129	4.228043572154266	0.07559836786975604	0.023	4.205051951359028	0.08864154540251298	0.2179	4.213225029274349	0.047091923473833855	0.1804	4.187841363129353	0.06575051279575868	-0.0119	4.556849013954648	0.30163631918218514	0.0301	4.340760756914379	0.1980128732172445	0.129	4.134371515504934	0.10101560137218077	0.023	4.12507813870124	0.08485943745292072	0.2179	4.096351969040857	0.10933008526094444	0.1804	4.09719935257055	0.0783768569677974	-0.0119	4.858236835111303	0.3469480829473111	0.0008	4.955720562628458	0.4113894738276672	0.0655	4.874511648714922	0.36784027923677126	0.1076	4.879226478911083	0.2517501547183356	-0.01275	4.732612048155697	0.1836578635098788	0.0702	4.598687271915942	0.11863155204948019	0.1076	4.808866436507477	0.42654742231540965	-0.01275	4.649904475395952	0.40584050439959324	0.0702	4.524394117616293	0.3712802592553687	0.1076
1470	49.023047977422394	4.587376729455763	0.25090277048251863	0.0301	4.6008151041193575	0.19878723087998013	0.0301	4.399726890729949	0.14344307290767616	0.129	4.230707339106852	0.07841611053404234	0.023	4.20602620889163	0.09051195220928723	0.2179	4.21411348978026	0.0484461639066762	0.1804	4.18901094147864	0.0676528170468707	-0.0119	4.560148366619561	0.3014323111762476	0.0301	4.344984061391074	0.20028730669407727	0.129	4.1396428344724665	0.10340850097642838	0.023	4.126533104835428	0.08322931817499506	0.2179	4.099629233200568	0.10766696887810866	0.1804	4.102578991865722	0.08112713426597795	-0.0119	4.859547234431777	0.34488689173490267	0.0008	4.958472183102499	0.4049690716161684	0.0655	4.877061323174005	0.36033701633992593	0.1076	4.879977976486207	0.24954396242521656	-0.01275	4.734274296458964	0.18234585495325484	0.0702	4.599146332802249	0.11765734844599973	0.1076	4.8105606394241756	0.424024648741243	-0.01275	4.651846064333747	0.4034595572228239	0.0702	4.526771589177084	0.37030998200821813	0.1076
1471	49.05639698965194	4.5923097100697685	0.251453681870689	0.0301	4.605357361312424	0.19995318365698825	0.0301	4.405258611534745	0.1444611102795791	0.129	4.2325395835278306	0.08040165977801993	0.023	4.205181173864393	0.09013273645082542	0.2179	4.214117386953655	0.04759177569083238	0.1804	4.189786986866067	0.06856804108015987	-0.0119	4.565092756940781	0.3013094873767405	0.0301	4.352695389805892	0.20478366715319077	0.129	4.147422269172224	0.10747680640160788	0.023	4.13150142464675	0.08331242355179484	0.2179	4.10660026403537	0.10964238050880294	0.1804	4.110190474895664	0.08457308182662482	-0.0119	4.861229192782753	0.3438298506942649	0.0008	4.960131776883172	0.40109367999642814	0.0655	4.880980674692634	0.3575254943321138	0.1076	4.881937215050911	0.24792362399346082	-0.01275	4.737812152722038	0.1815404789013884	0.0702	4.601928277361289	0.11696298623661691	0.1076	4.813968596549268	0.42176361994853934	-0.01275	4.654967180506523	0.4017473208865671	0.0702	4.530364504129025	0.3691478883317663	0.1076
